<?xml version="1.0" standalone="no"?>
<!DOCTYPE svg PUBLIC "-//W3C//DTD SVG 20010904//EN"
 "http://www.w3.org/TR/2001/REC-SVG-20010904/DTD/svg10.dtd">
<svg version="1.0" xmlns="http://www.w3.org/2000/svg"
 width="112.000000pt" height="120.000000pt" viewBox="0 0 112.000000 120.000000"
 preserveAspectRatio="xMidYMid meet">

<g transform="translate(0.000000,120.000000) scale(0.100000,-0.100000)"
fill="#000000" stroke="none">
<path d="M0 125 c0 -8 7 -15 15 -15 12 0 15 -13 15 -55 0 -48 2 -55 20 -55 18
0 20 7 20 55 0 42 3 55 15 55 8 0 15 7 15 15 0 11 -12 15 -50 15 -38 0 -50 -4
-50 -15z"/>
<path d="M120 70 c0 -63 2 -70 20 -70 15 0 20 7 20 28 l1 27 15 -27 c8 -16 23
-28 34 -28 17 0 18 3 8 25 -9 19 -9 28 0 37 18 18 14 56 -7 68 -11 5 -36 10
-55 10 l-36 0 0 -70z m68 22 c2 -7 -3 -12 -12 -12 -9 0 -16 7 -16 16 0 17 22
14 28 -4z"/>
<path d="M250 70 l0 -70 45 0 c33 0 45 4 45 15 0 9 -9 15 -25 15 -16 0 -25 6
-25 15 0 8 9 15 20 15 11 0 20 5 20 10 0 6 -9 10 -20 10 -11 0 -20 7 -20 15 0
9 9 15 25 15 16 0 25 6 25 15 0 11 -12 15 -45 15 l-45 0 0 -70z"/>
<path d="M360 70 l0 -70 45 0 c33 0 45 4 45 15 0 9 -9 15 -25 15 -16 0 -25 6
-25 15 0 8 9 15 20 15 11 0 20 5 20 10 0 6 -9 10 -20 10 -11 0 -20 7 -20 15 0
9 9 15 25 15 16 0 25 6 25 15 0 11 -12 15 -45 15 l-45 0 0 -70z"/>
<path d="M470 70 c0 -63 2 -70 20 -70 16 0 20 7 20 31 0 26 3 30 23 27 16 -2
23 -11 25 -30 2 -16 9 -28 18 -28 11 0 14 16 14 70 0 56 -3 70 -15 70 -9 0
-15 -9 -15 -25 0 -20 -5 -25 -25 -25 -20 0 -25 5 -25 25 0 18 -5 25 -20 25
-18 0 -20 -7 -20 -70z"/>
<path d="M630 120 c-11 -11 -20 -33 -20 -50 0 -65 79 -94 119 -44 27 35 26 59
-4 89 -29 30 -68 32 -95 5z m80 -50 c0 -11 -9 -24 -19 -30 -38 -20 -63 38 -27
62 16 10 46 -11 46 -32z"/>
<path d="M770 87 c0 -60 19 -87 62 -87 39 0 58 29 58 88 0 45 -3 52 -20 52
-17 0 -20 -7 -20 -49 0 -33 -5 -51 -14 -54 -21 -8 -26 2 -26 55 0 41 -3 48
-20 48 -18 0 -20 -7 -20 -53z"/>
<path d="M922 128 c-21 -21 -13 -48 18 -66 38 -22 38 -33 0 -25 -16 3 -30 1
-30 -4 0 -17 24 -33 50 -33 56 0 70 59 20 80 -16 7 -30 16 -30 21 0 5 14 6 30
3 17 -4 30 -2 30 3 0 17 -24 33 -50 33 -14 0 -31 -5 -38 -12z"/>
<path d="M1030 70 l0 -70 45 0 c33 0 45 4 45 15 0 9 -9 15 -25 15 -16 0 -25 6
-25 15 0 8 9 15 20 15 11 0 20 5 20 10 0 6 -9 10 -20 10 -11 0 -20 7 -20 15 0
9 9 15 25 15 16 0 25 6 25 15 0 11 -12 15 -45 15 l-45 0 0 -70z"/>
</g>
</svg>
